# xmcd
#
# Track frame offsets: 
#        150
#        19558
#        34878
#        48745
#        63112
#        73476
#        90455
#        98045
#        114015
#        127798
#        141914
#
# Disc length: 2219 seconds
#
# Revision: 0
# Processed by: cddbd v1.5.2PL0 Copyright (c) Steve Scherf et al.
# Submitted via: ExactAudioCopyFreeDBPlugin 1.0
#
DISCID=8d08a90b
DTITLE=Hyde And Beast - Keep Moving
DYEAR=2014
DGENRE=Blues
TTITLE0=Open Your Heart
TTITLE1=Like I'm Grass
TTITLE2=Blown Away
TTITLE3=Keep Moving
TTITLE4=Animals
TTITLE5=Blue
TTITLE6=Suits Me Fine
TTITLE7=Forever Your Own
TTITLE8=Train To Nowhere
TTITLE9=A Dark Mistake
TTITLE10=Ba Ba Ba
EXTD=
EXTT0=
EXTT1=
EXTT2=
EXTT3=
EXTT4=
EXTT5=
EXTT6=
EXTT7=
EXTT8=
EXTT9=
EXTT10=
PLAYORDER=
